<?xml version="1.0" ?><!-- Uploaded to: SVG Repo, www.svgrepo.com, Generator: SVG Repo Mixer Tools -->
<svg width="800px" height="800px" viewBox="0 0 64 64" id="Layer_1" version="1.1" xml:space="preserve" xmlns="http://www.w3.org/2000/svg" xmlns:xlink="http://www.w3.org/1999/xlink"><style type="text/css">
	.st0{fill:none;stroke:#126BB5;stroke-width:2;stroke-linecap:round;stroke-linejoin:round;stroke-miterlimit:10;}
	.st1{fill:none;stroke:#00B1E4;stroke-width:2;stroke-linecap:round;stroke-linejoin:round;stroke-miterlimit:10;}
	.st2{fill:none;stroke:#00B1E4;stroke-width:2;stroke-linejoin:round;stroke-miterlimit:10;}
	.st3{fill:#FFFFFF;stroke:#00B1E4;stroke-width:2;stroke-linecap:round;stroke-linejoin:round;stroke-miterlimit:10;}
	.st4{fill:#00B1E4;}
	.st5{fill:none;stroke:#126BB5;stroke-width:2;stroke-miterlimit:10;}
	.st6{fill:none;stroke:#00B1E4;stroke-width:2;stroke-miterlimit:10;}
	.st7{fill:none;stroke:#2B3088;stroke-width:2;stroke-linejoin:round;stroke-miterlimit:10;}
	.st8{fill:none;stroke:#126BB5;stroke-width:2;stroke-linecap:round;stroke-miterlimit:10;}
	.st9{fill:none;stroke:#00B1E4;stroke-width:2;stroke-linecap:round;stroke-miterlimit:10;}
</style><path class="st0" d="M38,47.9c-1.9,0.7-3.9,1.1-6,1.1c-9.4,0-17-7.6-17-17s7.6-17,17-17s17,7.6,17,17c0,1-0.1,2-0.3,3"/><circle class="st1" cx="32" cy="41" r="2"/><path class="st1" d="M32,35L32,35c-1.1,0-2-0.9-2-2V23c0-1.1,0.9-2,2-2h0c1.1,0,2,0.9,2,2v10C34,34.1,33.1,35,32,35z"/><rect class="st1" height="8" width="10" x="42" y="44"/><path class="st1" d="M50,44h-6v-2c0-1.7,1.3-3,3-3h0c1.7,0,3,1.3,3,3V44z"/><line class="st1" x1="47" x2="47" y1="48" y2="48"/></svg>